<svg xmlns="http://www.w3.org/2000/svg" width="716" height="180" version="1.1" viewBox="0 0 716 180"><defs><pattern id="diagonalHatch" width="5" height="5" patternTransform="rotate(45 0 0)" patternUnits="userSpaceOnUse"><line x1="0" x2="0" y1="0" y2="5" stroke="#ccc" stroke-width="1"/></pattern></defs><g fill="none" stroke="none" stroke-width="1" direction="ltr" font-family="Arial" font-size="16"><rect width="94" height="25" x="22" y="10" fill="url(#diagonalHatch)" stroke="#495057"/><text x="48" y="27" fill="#495057">Page1</text><rect width="94" height="25" x="118" y="10" stroke="#495057"/><text x="144" y="27" fill="#495057">Page2</text><rect width="697" height="135" x="10" y="35" stroke="#495057"/><g fill="none" stroke="#888" stroke-linecap="round" stroke-width="1"><rect width="94" height="25" x="15" y="42" stroke-dasharray="2 6" rx="5" ry="5"/><rect width="241" height="25" x="114" y="42" rx="5" ry="5"/><rect width="94" height="25" x="362" y="42" stroke-dasharray="2 6" rx="5" ry="5"/><rect width="241" height="25" x="461" y="42" rx="5" ry="5"/><rect width="94" height="25" x="15" y="73" stroke-dasharray="2 6" rx="5" ry="5"/><rect width="241" height="25" x="114" y="73" rx="5" ry="5"/><rect width="94" height="25" x="362" y="73" stroke-dasharray="2 6" rx="5" ry="5"/><rect width="241" height="25" x="461" y="73" rx="5" ry="5"/></g></g></svg>