<svg xmlns="http://www.w3.org/2000/svg" width="660" height="260" version="1.1" viewBox="0 0 660 260"><defs><pattern id="diagonalHatch" width="5" height="5" patternTransform="rotate(45 0 0)" patternUnits="userSpaceOnUse"><line x1="0" x2="0" y1="0" y2="5" stroke="#ccc" stroke-width="1"/></pattern></defs><g fill="none" stroke="#495057" stroke-width="0" direction="ltr" font-family="Arial" font-size="16"><text x="14" y="31" fill="#888" style="font-weight:700">Column 1</text><rect width="50" height="10" x="10" y="44" fill="#0b0" stroke-width="0"/><rect width="50" height="10" x="60" y="44" fill="#bbb" stroke-width="0"/><text x="122" y="52" fill="#888" style="font-weight:700;font-size:.6em">12,988</text><rect width="144" height="80" x="10" y="70" fill="url(#diagonalHatch)" stroke-width="1" rx="3" ry="3"/><rect width="144" height="80" x="10" y="170" fill="url(#diagonalHatch)" stroke-width="1" rx="3" ry="3"/><text x="174" y="31" fill="#888" style="font-weight:700">Column 2</text><rect width="100" height="10" x="170" y="44" fill="#f90" stroke-width="0"/><text x="288" y="52" fill="#888" style="font-weight:700;font-size:.6em">6,700</text><rect width="144" height="80" x="170" y="70" fill="url(#diagonalHatch)" stroke-width="1" rx="3" ry="3"/><text x="334" y="31" fill="#888" style="font-weight:700">Column 2</text><rect width="100" height="10" x="330" y="44" fill="#bbb" stroke-width="0"/><text x="442" y="52" fill="#888" style="font-weight:700;font-size:.6em">18,000</text><rect width="144" height="80" x="330" y="70" fill="url(#diagonalHatch)" stroke-width="1" rx="3" ry="3"/></g></svg>