<svg xmlns="http://www.w3.org/2000/svg" width="660" height="255" version="1.1" viewBox="0 0 660 255"><defs><pattern id="diagonalHatch" width="5" height="5" patternTransform="rotate(45 0 0)" patternUnits="userSpaceOnUse"><line x1="0" x2="0" y1="0" y2="5" stroke="#ccc" stroke-width="1"/></pattern><pattern id="line" width="700" height="28" patternUnits="userSpaceOnUse"><g fill="none" stroke="#495057" stroke-width="1" transform="translate(0 0)"><rect width="10" height="10" x="18" y="7"/><rect width="280" height="25" x="40" y="1" stroke-dasharray="1.2 6" rx="5" ry="5"/><rect width="100" height="25" x="330" y="1" stroke-dasharray="1.2 6" rx="5" ry="5"/><rect width="104" height="25" x="440" y="1" stroke-dasharray="1.2 6" rx="5" ry="5"/><rect width="80" height="25" x="554" y="1" stroke-dasharray="1.2 6" rx="5" ry="5"/></g></pattern></defs><g fill="none" stroke="#495057" stroke-width="0" direction="ltr" font-family="Arial" font-size="16"><rect width="636" height="240" x="10" y="10" stroke-width="1"/><rect width="636" height="25" x="10" y="10" fill="url(#diagonalHatch)" stroke-width="1"/><rect width="10" height="10" x="17" y="17" stroke-width="1"/><text x="40" y="28" fill="#495057">My Custom Name</text><text x="330" y="28" fill="#495057">Amount</text><text x="440" y="28" fill="#495057">Currency</text><text x="560" y="28" fill="#495057">Tax</text><rect width="700" height="28" fill="url(#line)" transform="translate(0 40)"/><rect width="700" height="28" fill="url(#line)" transform="translate(0 70)"/><rect width="700" height="28" fill="url(#line)" transform="translate(0 100)"/><rect width="700" height="28" fill="url(#line)" transform="translate(0 130)"/><rect width="700" height="28" fill="url(#line)" transform="translate(0 160)"/><rect width="636" height="25" x="10" y="225" fill="url(#diagonalHatch)" stroke-width="1"/><text x="335" y="243" fill="#495057">123.45 €</text></g></svg>